<?xml version="1.0" encoding="UTF-8"?><svg id="a" xmlns="http://www.w3.org/2000/svg" xmlns:xlink="http://www.w3.org/1999/xlink" viewBox="0 0 1419.04 541.66"><defs><style>.d{fill:url(#c);}.e{fill:url(#b);}.f{fill:#fff;}.g{fill:#262626;}</style><linearGradient id="b" x1="212.33" y1="142.51" x2="209.74" y2="565.38" gradientTransform="matrix(1, 0, 0, 1, 0, 0)" gradientUnits="userSpaceOnUse"><stop offset=".02" stop-color="#cce8ef"/><stop offset="1" stop-color="#767574"/></linearGradient><linearGradient id="c" x1="78.85" y1="-1901.68" x2="343.63" y2="-1901.68" gradientTransform="translate(0 -1630.86) scale(1 -1)" gradientUnits="userSpaceOnUse"><stop offset="0" stop-color="#2300bf"/><stop offset=".02" stop-color="#2307c6"/><stop offset=".08" stop-color="#2621de"/><stop offset=".14" stop-color="#2834f0"/><stop offset=".21" stop-color="#2940fb"/><stop offset=".28" stop-color="#2a44ff"/><stop offset=".56" stop-color="#00acbf"/><stop offset=".89" stop-color="#007f48"/><stop offset="1" stop-color="#00aa8f"/></linearGradient></defs><g><rect class="e" y="44.25" width="423.28" height="423.28" rx="94.77" ry="94.77"/><rect x="14.11" y="58.35" width="395.06" height="395.06" rx="87.01" ry="87.01"/><rect class="g" x="42.33" y="86.57" width="338.62" height="338.62" rx="56.19" ry="56.19"/></g><g><path d="M519.32,183.66c10.56-2.16,25.67-3.36,40.07-3.36,22.32,0,36.71,4.08,46.79,13.2,8.16,7.2,12.72,18.24,12.72,30.71,0,21.35-13.44,35.51-30.48,41.27v.72c12.48,4.32,19.92,15.84,23.76,32.63,5.28,22.56,9.12,38.15,12.48,44.39h-21.6c-2.64-4.56-6.24-18.48-10.8-38.63-4.8-22.32-13.44-30.71-32.39-31.43h-19.68v70.06h-20.88V183.66Zm20.88,73.66h21.35c22.31,0,36.47-12.24,36.47-30.71,0-20.88-15.12-29.99-37.19-30.23-10.08,0-17.28,.96-20.64,1.92v59.03Z"/><path d="M714.87,343.23l-1.68-14.64h-.72c-6.48,9.12-18.96,17.28-35.51,17.28-23.52,0-35.51-16.56-35.51-33.35,0-28.07,24.95-43.43,69.82-43.19v-2.4c0-9.6-2.64-26.87-26.39-26.87-10.8,0-22.08,3.36-30.24,8.64l-4.8-13.92c9.6-6.24,23.52-10.32,38.15-10.32,35.51,0,44.15,24.24,44.15,47.51v43.43c0,10.08,.48,19.92,1.92,27.83h-19.2Zm-3.12-59.27c-23.04-.48-49.19,3.6-49.19,26.15,0,13.68,9.12,20.15,19.92,20.15,15.12,0,24.72-9.6,28.07-19.43,.72-2.16,1.2-4.56,1.2-6.72v-20.15Z"/><path d="M766.21,265c0-14.88-.48-26.88-.96-37.91h18.96l.96,19.92h.48c8.64-14.16,22.31-22.56,41.27-22.56,28.07,0,49.19,23.76,49.19,59.03,0,41.75-25.44,62.39-52.79,62.39-15.36,0-28.79-6.72-35.75-18.24h-.48v63.11h-20.88v-125.73Zm20.88,30.95c0,3.12,.48,6,.96,8.64,3.84,14.64,16.56,24.71,31.67,24.71,22.32,0,35.27-18.23,35.27-44.87,0-23.27-12.24-43.19-34.55-43.19-14.4,0-27.84,10.32-31.91,26.15-.72,2.64-1.44,5.76-1.44,8.64v19.92Z"/><path d="M926.24,194.46c.24,7.2-5.04,12.96-13.44,12.96-7.44,0-12.71-5.76-12.71-12.96s5.52-13.2,13.2-13.2,12.96,5.76,12.96,13.2Zm-23.52,148.77v-116.14h21.11v116.14h-21.11Z"/><path d="M1059.16,172.86v140.37c0,10.32,.24,22.08,.96,29.99h-18.96l-.96-20.16h-.48c-6.48,12.96-20.64,22.8-39.59,22.8-28.07,0-49.67-23.76-49.67-59.03-.24-38.63,23.76-62.39,52.07-62.39,17.76,0,29.75,8.4,35.03,17.76h.48v-69.35h21.12Zm-21.12,101.5c0-2.64-.24-6.24-.96-8.88-3.12-13.44-14.64-24.48-30.47-24.48-21.84,0-34.79,19.2-34.79,44.87,0,23.52,11.52,42.95,34.31,42.95,14.16,0,27.11-9.36,30.95-25.19,.72-2.88,.96-5.76,.96-9.12v-20.16Z"/><path d="M1258.78,337.95c-7.68,3.84-23.04,7.68-42.71,7.68-45.59,0-79.91-28.79-79.91-81.82s34.31-84.94,84.46-84.94c20.16,0,32.87,4.32,38.39,7.2l-5.04,17.04c-7.92-3.84-19.2-6.72-32.63-6.72-37.91,0-63.11,24.23-63.11,66.71,0,39.59,22.8,65.03,62.15,65.03,12.72,0,25.68-2.64,34.07-6.72l4.32,16.56Z"/><path d="M1284.92,181.5h20.88v144.21h69.1v17.52h-89.98V181.5Z"/><path d="M1419.04,181.5v161.73h-20.88V181.5h20.88Z"/></g><path class="d" d="M292.48,0C226.69,100.42,154.48,195.85,78.85,289.82c24.19,.89,47.12,1.77,70.04,2.58,25.32,.88,50.64,1.69,75.97,2.53,4.07,.13,5.39,2.06,3.96,5.78-29.2,75.34-59.02,150.42-93.78,223.42-2.77,5.81-5.38,11.68-8.07,17.52,31.05-47.42,65.32-96.7,103.07-147.24,38.31-51.27,76.4-98.73,113.59-142.48-.76-.03-4.97-.17-5.74-.19-70.28-2.36-64.89-2.29-70.09-2.47-25.18-.86-50.37-1.71-75.55-2.46-2.98-.08-3.66-.74-2.51-3.66,12.62-32.04,24.73-64.29,37.82-96.14,16.38-39.89,33.32-79.55,51.8-118.53,4.48-9.45,8.76-18.99,13.13-28.47v-.02Z"/><path class="f" d="M102.54,143.55l-33.02,17.22v-10.91l31.12-15.12v5.92l-31.12-15.07v-11.06l33.02,17.12v11.89Z"/><path class="f" d="M110.83,154.27h37.93v7.4h-37.93v-7.4Z"/></svg>