<?xml version="1.0" encoding="UTF-8"?><svg id="a" xmlns="http://www.w3.org/2000/svg" xmlns:xlink="http://www.w3.org/1999/xlink" width="388" height="68" viewBox="0 0 388 68"><defs><style>.d{fill:url(#c);}.e{fill:url(#b);}.f{fill:#fff;}.g{fill:#262626;}</style><linearGradient id="b" x1="212.33" y1="159.47" x2="209.74" y2="582.34" gradientTransform="matrix(1, 0, 0, 1, 0, 0)" gradientUnits="userSpaceOnUse"><stop offset=".02" stop-color="#cce8ef"/><stop offset="1" stop-color="#767574"/></linearGradient><linearGradient id="c" x1="67.03" y1="-1893.84" x2="357.31" y2="-1893.84" gradientTransform="translate(0 -1596.93) scale(1 -1)" gradientUnits="userSpaceOnUse"><stop offset="0" stop-color="#2300bf"/><stop offset=".02" stop-color="#2307c6"/><stop offset=".08" stop-color="#2621de"/><stop offset=".14" stop-color="#2834f0"/><stop offset=".21" stop-color="#2940fb"/><stop offset=".28" stop-color="#2a44ff"/><stop offset=".56" stop-color="#00acbf"/><stop offset=".89" stop-color="#007f48"/><stop offset="1" stop-color="#00aa8f"/></linearGradient></defs><g><rect class="e" y="61.21" width="423.28" height="423.28" rx="94.77" ry="94.77"/><rect x="14.11" y="75.32" width="395.06" height="395.06" rx="87.01" ry="87.01"/><rect class="g" x="42.33" y="103.53" width="338.62" height="338.62" rx="56.19" ry="56.19"/></g><g><path class="f" d="M519.32,200.62c10.56-2.16,25.67-3.36,40.07-3.36,22.32,0,36.71,4.08,46.79,13.2,8.16,7.2,12.72,18.24,12.72,30.71,0,21.35-13.44,35.51-30.48,41.27v.72c12.48,4.32,19.92,15.84,23.76,32.63,5.28,22.56,9.12,38.15,12.48,44.39h-21.6c-2.64-4.56-6.24-18.48-10.8-38.63-4.8-22.32-13.44-30.71-32.39-31.43h-19.68v70.06h-20.88V200.62Zm20.88,73.66h21.35c22.31,0,36.47-12.24,36.47-30.71,0-20.88-15.12-29.99-37.19-30.23-10.08,0-17.28,.96-20.64,1.92v59.03Z"/><path class="f" d="M714.87,360.19l-1.68-14.64h-.72c-6.48,9.12-18.96,17.28-35.51,17.28-23.52,0-35.51-16.56-35.51-33.35,0-28.07,24.95-43.43,69.82-43.19v-2.4c0-9.6-2.64-26.87-26.39-26.87-10.8,0-22.08,3.36-30.24,8.64l-4.8-13.92c9.6-6.24,23.52-10.32,38.15-10.32,35.51,0,44.15,24.24,44.15,47.51v43.43c0,10.08,.48,19.92,1.92,27.83h-19.2Zm-3.12-59.27c-23.04-.48-49.19,3.6-49.19,26.15,0,13.68,9.12,20.15,19.92,20.15,15.12,0,24.72-9.6,28.07-19.43,.72-2.16,1.2-4.56,1.2-6.72v-20.15Z"/><path class="f" d="M766.21,281.96c0-14.88-.48-26.88-.96-37.91h18.96l.96,19.92h.48c8.64-14.16,22.31-22.56,41.27-22.56,28.07,0,49.19,23.76,49.19,59.03,0,41.75-25.44,62.39-52.79,62.39-15.36,0-28.79-6.72-35.75-18.24h-.48v63.11h-20.88v-125.73Zm20.88,30.95c0,3.12,.48,6,.96,8.64,3.84,14.64,16.56,24.71,31.67,24.71,22.32,0,35.27-18.23,35.27-44.87,0-23.27-12.24-43.19-34.55-43.19-14.4,0-27.84,10.32-31.91,26.15-.72,2.64-1.44,5.76-1.44,8.64v19.92Z"/><path class="f" d="M926.24,211.42c.24,7.2-5.04,12.96-13.44,12.96-7.44,0-12.71-5.76-12.71-12.96s5.52-13.2,13.2-13.2,12.96,5.76,12.96,13.2Zm-23.52,148.77v-116.14h21.11v116.14h-21.11Z"/><path class="f" d="M1059.16,189.82v140.37c0,10.32,.24,22.08,.96,29.99h-18.96l-.96-20.16h-.48c-6.48,12.96-20.64,22.8-39.59,22.8-28.07,0-49.67-23.76-49.67-59.03-.24-38.63,23.76-62.39,52.07-62.39,17.76,0,29.75,8.4,35.03,17.76h.48v-69.35h21.12Zm-21.12,101.5c0-2.64-.24-6.24-.96-8.88-3.12-13.44-14.64-24.48-30.47-24.48-21.84,0-34.79,19.2-34.79,44.87,0,23.52,11.52,42.95,34.31,42.95,14.16,0,27.11-9.36,30.95-25.19,.72-2.88,.96-5.76,.96-9.12v-20.16Z"/><path class="f" d="M1258.78,354.91c-7.68,3.84-23.04,7.68-42.71,7.68-45.59,0-79.91-28.79-79.91-81.82s34.31-84.94,84.46-84.94c20.16,0,32.87,4.32,38.39,7.2l-5.04,17.04c-7.92-3.84-19.2-6.72-32.63-6.72-37.91,0-63.11,24.23-63.11,66.71,0,39.59,22.8,65.03,62.15,65.03,12.72,0,25.68-2.64,34.07-6.72l4.32,16.56Z"/><path class="f" d="M1284.92,198.46h20.88v144.21h69.1v17.52h-89.98V198.46Z"/><path class="f" d="M1419.04,198.46v161.73h-20.88V198.46h20.88Z"/></g><path class="f" d="M102.54,160.51l-33.02,17.22v-10.91l31.12-15.12v5.92l-31.12-15.07v-11.06l33.02,17.12v11.89Z"/><path class="f" d="M110.83,171.23h37.93v7.4h-37.93v-7.4Z"/><path class="d" d="M301.24,0C229.11,110.09,149.95,214.71,67.03,317.73c26.52,.98,51.65,1.94,76.79,2.83,27.76,.97,55.52,1.85,83.28,2.77,4.47,.15,5.91,2.26,4.34,6.34-32.01,82.59-64.7,164.91-102.82,244.94-3.03,6.37-5.9,12.81-8.85,19.21,34.05-51.98,71.61-106.01,113-161.42,42-56.2,83.76-108.23,124.53-156.2-.84-.03-5.45-.18-6.29-.21-77.05-2.59-71.14-2.52-76.84-2.71-27.6-.94-55.22-1.88-82.82-2.7-3.26-.09-4.01-.81-2.75-4.01,13.84-35.12,27.12-70.48,41.46-105.4,17.96-43.73,36.52-87.21,56.78-129.94,4.91-10.36,9.6-20.81,14.39-31.22v-.02Z"/></svg>