<svg xmlns="http://www.w3.org/2000/svg" viewBox="0 0 1179.16 655.44"><defs><linearGradient id="a" x1="20.29" x2="335.34" y1="327.72" y2="327.72" gradientUnits="userSpaceOnUse"><stop offset="0" stop-color="#2300bf"/><stop offset=".02" stop-color="#2307c6"/><stop offset=".08" stop-color="#2621de"/><stop offset=".14" stop-color="#2834f0"/><stop offset=".21" stop-color="#2940fb"/><stop offset=".28" stop-color="#2a44ff"/><stop offset=".56" stop-color="#00acbf"/><stop offset=".89" stop-color="#007f48"/><stop offset="1" stop-color="#00aa8f"/></linearGradient></defs><path fill="url(#a)" stroke="#1d1d1b" stroke-miterlimit="10" stroke-width="20" d="M274.48 5.48C196.2 124.96 110.28 238.51 20.29 350.32c28.78 1.06 56.06 2.11 83.34 3.07 30.13 1.05 60.26 2.01 90.39 3.01q7.27.24 4.71 6.88c-34.74 89.64-70.22 178.98-111.59 265.84-3.29 6.91-6.4 13.9-9.6 20.85a3461.71 3461.71 0 0 1 122.64-175.19c45.58-61 90.91-117.47 135.16-169.53l-6.83-.23c-83.62-2.81-77.21-2.73-83.4-2.94-29.96-1.02-59.93-2.04-89.89-2.93-3.54-.1-4.35-.88-2.99-4.35 15.02-38.12 29.43-76.49 45-114.39 19.49-47.46 39.64-94.65 61.63-141.03 5.33-11.24 10.42-22.59 15.62-33.88Z"/><path d="M434.14 237.72h31.73v32.1h.73c3.16-10.94 8.63-19.64 16.41-26.08 7.78-6.44 17.02-9.67 27.72-9.67 2.8 0 5.32.15 7.57.46s3.98.58 5.2.82v30.82c-1.22-.49-3.37-.91-6.47-1.28s-6.6-.55-10.49-.55c-8.15 0-15.29 1.82-21.43 5.47-6.14 3.65-10.88 8.91-14.23 15.78-3.34 6.87-5.02 15.11-5.02 24.71v117.09h-31.73V237.72ZM568.01 423.93c-9.48-4.74-16.87-11.43-22.16-20.06s-7.93-18.66-7.93-30.09v-.36c0-10.82 2.71-20.18 8.12-28.09 5.41-7.9 13.25-14.16 23.53-18.79 10.27-4.62 22.65-7.36 37.11-8.21l70.22-4.01v24.62l-66.57 4.01c-12.64.73-22.46 3.77-29.45 9.12-6.99 5.35-10.49 12.46-10.49 21.34v.36c0 9.12 3.43 16.35 10.3 21.7 6.87 5.35 16.02 8.02 27.45 8.02 9.97 0 18.94-2.1 26.9-6.29 7.96-4.19 14.29-9.94 18.97-17.23 4.68-7.3 7.02-15.5 7.02-24.62v-55.99c0-11.55-3.62-20.64-10.85-27.27-7.23-6.63-17.48-9.94-30.73-9.94-12.16 0-21.98 2.64-29.45 7.93-7.48 5.29-12.13 12.19-13.95 20.7l-.36 1.64h-30.64l.18-2.01c.97-10.46 4.53-19.94 10.67-28.45 6.14-8.51 14.62-15.29 25.44-20.34 10.82-5.05 23.65-7.57 38.48-7.57s27.87 2.55 38.76 7.66c10.88 5.11 19.3 12.31 25.26 21.61 5.96 9.3 8.94 20.27 8.94 32.92v131.13h-31.73v-30.82h-.73c-3.65 6.93-8.51 12.98-14.59 18.15-6.08 5.17-12.92 9.18-20.52 12.04-7.6 2.86-15.65 4.29-24.17 4.29-12.52 0-23.53-2.37-33.01-7.11ZM733.06 237.72h31.73v32.1h.73c4.01-7.42 8.97-13.77 14.86-19.06 5.9-5.29 12.68-9.39 20.34-12.31s15.99-4.38 24.99-4.38c16.17 0 30.31 4.04 42.4 12.13 12.1 8.09 21.49 19.51 28.18 34.29 6.69 14.77 10.03 32.13 10.03 52.07v.18c0 19.94-3.37 37.27-10.12 51.98-6.75 14.71-16.11 26.11-28.09 34.2-11.98 8.09-25.93 12.13-41.86 12.13-8.88 0-17.2-1.43-24.99-4.29s-14.68-6.93-20.7-12.22c-6.02-5.29-11.03-11.58-15.05-18.88h-.73v95.57h-31.73V237.72Zm115.45 156.66c8.15-5.71 14.41-13.83 18.79-24.35s6.57-22.95 6.57-37.3v-.18c0-14.59-2.19-27.14-6.57-37.66-4.38-10.52-10.64-18.6-18.79-24.26-8.15-5.65-17.81-8.48-29-8.48s-20.18 2.92-28.45 8.75-14.74 14.01-19.42 24.53c-4.68 10.52-7.02 22.89-7.02 37.11v.18c0 14.1 2.37 26.41 7.11 36.93s11.22 18.69 19.42 24.53 17.66 8.75 28.36 8.75 20.85-2.86 29-8.57ZM942.07 199.78c-3.89-3.89-5.84-8.57-5.84-14.04s1.95-10.3 5.84-14.13c3.89-3.83 8.57-5.74 14.04-5.74s10.3 1.91 14.13 5.74 5.74 8.54 5.74 14.13-1.91 10.15-5.74 14.04c-3.83 3.89-8.54 5.84-14.13 5.84s-10.15-1.95-14.04-5.84Zm-1.82 37.93h31.73v189.67h-31.73V237.72ZM1044.11 418.91c-12.1-8.09-21.49-19.51-28.18-34.29-6.69-14.77-10.03-32.13-10.03-52.07v-.18c0-19.94 3.37-37.27 10.12-51.98 6.75-14.71 16.14-26.11 28.18-34.2 12.04-8.09 25.96-12.13 41.76-12.13 9 0 17.36 1.43 25.08 4.29 7.72 2.86 14.62 6.93 20.7 12.22 6.08 5.29 11.06 11.58 14.96 18.88h.73V164.22h31.73v263.17h-31.73v-32.1h-.73c-3.89 7.42-8.82 13.77-14.77 19.06-5.96 5.29-12.74 9.39-20.34 12.31s-15.96 4.38-25.08 4.38c-16.17 0-30.31-4.04-42.4-12.13Zm77.06-24.71c8.27-5.84 14.74-14.04 19.42-24.62 4.68-10.58 7.02-22.92 7.02-37.02v-.18c0-14.1-2.37-26.41-7.11-36.93s-11.22-18.69-19.42-24.53-17.66-8.75-28.36-8.75-20.85 2.86-29 8.57c-8.15 5.71-14.41 13.8-18.79 24.26-4.38 10.46-6.57 22.92-6.57 37.39v.18c0 14.47 2.19 26.99 6.57 37.57 4.38 10.58 10.64 18.69 18.79 24.35s17.81 8.48 29 8.48 20.18-2.92 28.45-8.75Z"/></svg>