<?xml version="1.0" encoding="UTF-8"?>
<svg id="a"
    xmlns="http://www.w3.org/2000/svg"
    xmlns:xlink="http://www.w3.org/1999/xlink" viewBox="0 0 356.37 655.44">
    <defs>
        <style>.c{fill:url(#b);stroke:#ffffff;stroke-miterlimit:10;stroke-width:20px;}</style>
        <linearGradient id="b" x1="20.29" y1="327.72" x2="335.34" y2="327.72" gradientTransform="matrix(1, 0, 0, 1, 0, 0)" gradientUnits="userSpaceOnUse">
            <stop offset="0" stop-color="#2300bf"/>
            <stop offset=".02" stop-color="#2307c6"/>
            <stop offset=".08" stop-color="#2621de"/>
            <stop offset=".14" stop-color="#2834f0"/>
            <stop offset=".21" stop-color="#2940fb"/>
            <stop offset=".28" stop-color="#2a44ff"/>
            <stop offset=".56" stop-color="#00acbf"/>
            <stop offset=".89" stop-color="#007f48"/>
            <stop offset="1" stop-color="#00aa8f"/>
        </linearGradient>
    </defs>
    <path class="c" d="M274.48,5.48C196.2,124.96,110.28,238.51,20.29,350.32c28.78,1.06,56.06,2.11,83.34,3.07,30.13,1.05,60.26,2.01,90.39,3.01q7.27,.24,4.71,6.88c-34.74,89.64-70.22,178.98-111.59,265.84-3.29,6.91-6.4,13.9-9.6,20.85,36.95-56.42,77.72-115.06,122.64-175.19,45.58-61,90.91-117.47,135.16-169.53-.91-.03-5.91-.2-6.83-.23-83.62-2.81-77.21-2.73-83.4-2.94-29.96-1.02-59.93-2.04-89.89-2.93-3.54-.1-4.35-.88-2.99-4.35,15.02-38.12,29.43-76.49,45-114.39,19.49-47.46,39.64-94.65,61.63-141.03,5.33-11.24,10.42-22.59,15.62-33.88Z"/>
</svg>